<svg version="1.2" xmlns="http://www.w3.org/2000/svg" viewBox="0 0 512 512" width="512" height="512">
	<title>logo-svg</title>
	<style>
		.s0 { fill: #000000 } 
	</style>
	<g id="Layer">
		<path id="Layer" class="s0" d="m157 355c-0.1-2.8-0.1-6-0.2-10-0.2-17.2-0.3-47.3-0.3-103v-118.5l20.7-0.3 20.8-0.2 0.5 2.2c0.3 1.3 0.6 55.4 0.8 120.3l-0.3 106.5 3.2 21.5c5.4 19.6 18.6 41.2 33 53.9 13.5 12 31.8 21.7 47.1 25.1 3.9 0.9 13.3 1.9 20.8 2.2 21.2 0.9 36.7-2.3 53.4-11 27.2-14.1 48.4-40.3 56-69 7.8-29.5 3.9-62.3-10.3-86.2-13-21.9-34.1-40.3-55.2-48.2-18-6.7-38.2-8.8-56-5.8-17.3 2.9-30.5 8-43.2 16.6-3.2 2.2-6.2 3.9-6.8 3.9-1.2 0-1.2-8.7 0-15 1.6-8.5 2.7-11.7 7.8-22.1 5-10.5 10.4-18.2 20.3-29.5 12.9-14.7 19-24.8 22.2-36.9 4.8-18.2 2.2-38.3-7.1-55.2-5.1-9.3-19.5-23.5-29.5-29.1-21.8-12.4-53.3-12.5-75.6-0.3-11.7 6.4-24.3 18.9-30.4 30.3-5 9.1-7.1 16.2-8.7 28.1-0.6 5.1-1 72.6-1 190.3v182.4l-21.2-0.2-21.3-0.3v-189.5c0.1-155.8 0.3-190.3 1.4-194 0.7-2.5 2.4-8.6 3.7-13.5 3-11.1 10.5-26.7 17.5-36 10.7-14.2 26.9-28.3 41.9-36.3 11.7-6.2 19.9-8.7 41-12.6 6.2-1.1 32.8 0.3 41.9 2.3 25.4 5.6 49.3 20.8 67.1 42.9 7.9 9.6 17.8 28.5 20.5 38.7 7.6 29 5.5 56.9-6.3 82.8-1.9 4.2-3.3 8-3 8.3 0.3 0.3 4.4 1.1 9 1.9 33.8 5.5 59.8 19.2 84.8 45.1 19.4 20 32.3 43.1 38.5 68.9 1.6 6.7 2.2 9.4 4.6 24.5 1.3 7.4 0.7 27.3-1 34-0.6 2.5-2.1 9-3.2 14.5-6.6 30.9-23.5 58.8-49.4 81.6-40.9 36.1-97 46.4-150 27.6-20.6-7.3-42.5-22.4-59.6-41.2-20-21.9-32.2-46.9-37.7-77.5-0.4-2.1-1.1-12.2-1.2-15z"/>
	</g>
</svg>