<?xml version="1.0" standalone="no"?>
<!DOCTYPE svg PUBLIC "-//W3C//DTD SVG 20010904//EN"
 "http://www.w3.org/TR/2001/REC-SVG-20010904/DTD/svg10.dtd">
<svg version="1.0" xmlns="http://www.w3.org/2000/svg"
 width="512.000000pt" height="512.000000pt" viewBox="0 0 512.000000 512.000000"
 preserveAspectRatio="xMidYMid meet">

<g transform="translate(0.000000,512.000000) scale(0.100000,-0.100000)"
fill="#000000" stroke="none">
<path d="M2020 4964 c-211 -39 -293 -64 -410 -126 -150 -80 -312 -221 -419
-363 -70 -93 -145 -249 -175 -360 -13 -49 -30 -110 -37 -135 -11 -37 -13 -382
-14 -1940 l0 -1895 213 -3 212 -2 0 1824 c0 1177 4 1852 10 1903 16 119 37
190 87 281 61 114 187 239 304 303 223 122 538 121 756 -3 100 -56 244 -198
295 -291 93 -169 119 -370 71 -552 -32 -121 -93 -222 -222 -369 -99 -113 -153
-190 -203 -295 -51 -104 -62 -136 -78 -221 -12 -63 -12 -150 0 -150 6 0 36 17
68 39 127 86 259 137 432 166 178 30 380 9 560 -58 211 -79 422 -263 552 -482
142 -239 181 -567 103 -862 -76 -287 -288 -549 -560 -690 -167 -87 -322 -119
-534 -110 -75 3 -169 13 -208 22 -153 34 -336 131 -471 251 -144 127 -276 343
-330 539 l-27 100 -2 1180 c-2 649 -5 1190 -8 1203 l-5 22 -208 -2 -207 -3 0
-1185 c0 -1073 2 -1194 17 -1280 55 -306 177 -556 377 -775 171 -188 390 -339
596 -412 530 -188 1091 -85 1500 276 259 228 428 507 494 816 11 55 26 120 32
145 17 67 23 266 10 340 -24 151 -30 178 -46 245 -62 258 -191 489 -385 689
-250 259 -510 396 -848 451 -46 8 -87 16 -90 19 -3 3 11 41 30 83 118 259 139
538 63 828 -27 102 -126 291 -205 387 -178 221 -417 373 -671 429 -91 20 -357
34 -419 23z"/>
</g>
</svg>
